<svg width="91" height="29" viewBox="0 0 91 29" fill="none" xmlns="http://www.w3.org/2000/svg">
<path d="M11.096 27.824C10.84 27.9307 10.5733 27.9307 10.296 27.824C10.04 27.7173 9.85867 27.536 9.752 27.28C9.64533 27.024 9.64533 26.7573 9.752 26.48C9.85867 26.224 10.0507 26.0427 10.328 25.936C12.3973 25.0613 13.944 23.952 14.968 22.608C15.992 21.264 16.6 19.7813 16.792 18.16C15.9813 19.0987 14.9253 19.568 13.624 19.568C12.1947 19.568 11.064 19.2053 10.232 18.48C9.42133 17.7333 9.016 16.688 9.016 15.344C9.016 14.0213 9.44267 12.9547 10.296 12.144C11.1493 11.312 12.28 10.896 13.688 10.896C14.4347 10.896 15.1387 11.0347 15.8 11.312C15.736 10.6933 15.672 10.0533 15.608 9.392C15.5653 8.73067 15.5333 8.05867 15.512 7.376C13.144 7.46133 10.7867 7.58933 8.44 7.76C6.11467 7.90933 3.96 8.08 1.976 8.272C1.69867 8.29333 1.45333 8.21867 1.24 8.048C1.02667 7.87733 0.898667 7.65333 0.856 7.376C0.834667 7.09867 0.909333 6.85333 1.08 6.64C1.25067 6.40533 1.47467 6.27733 1.752 6.256C3.71467 6.08533 5.89067 5.92533 8.28 5.776C10.6693 5.62667 13.08 5.50933 15.512 5.424V1.2C15.512 0.922665 15.608 0.687998 15.8 0.495998C15.992 0.282665 16.2267 0.175999 16.504 0.175999C16.8027 0.175999 17.048 0.282665 17.24 0.495998C17.432 0.687998 17.528 0.922665 17.528 1.2V5.36C19.4907 5.296 21.368 5.25333 23.16 5.232C24.9733 5.18933 26.6053 5.17867 28.056 5.2C28.3333 5.2 28.568 5.30667 28.76 5.52C28.952 5.712 29.0373 5.94667 29.016 6.224C29.016 6.50133 28.9093 6.74667 28.696 6.96C28.504 7.152 28.2693 7.23733 27.992 7.216C26.52 7.17333 24.888 7.16267 23.096 7.184C21.304 7.184 19.448 7.216 17.528 7.28C17.5493 8.24 17.5813 9.21067 17.624 10.192C17.688 11.152 17.7413 12.0693 17.784 12.944C18.104 13.4347 18.3493 14.0107 18.52 14.672C18.712 15.312 18.808 16.0373 18.808 16.848C18.808 19.2373 18.1467 21.4133 16.824 23.376C15.5227 25.3387 13.6133 26.8213 11.096 27.824ZM13.624 17.744C14.3707 17.7227 14.968 17.4987 15.416 17.072C15.8853 16.624 16.12 16.0053 16.12 15.216C16.12 15.0027 16.1093 14.7787 16.088 14.544C16.088 14.3093 16.0773 14.0747 16.056 13.84C15.5227 13.136 14.7333 12.784 13.688 12.784C12.8987 12.784 12.2373 13.008 11.704 13.456C11.192 13.8827 10.936 14.4907 10.936 15.28C10.9573 16.0693 11.2027 16.688 11.672 17.136C12.1413 17.5627 12.792 17.7653 13.624 17.744ZM47.576 28.56C47.384 28.7093 47.16 28.7733 46.904 28.752C46.6693 28.752 46.4667 28.6667 46.296 28.496C46.1467 28.304 46.072 28.08 46.072 27.824C46.0933 27.568 46.1893 27.3653 46.36 27.216C47.6827 26.064 48.696 24.7093 49.4 23.152C50.1253 21.5733 50.488 19.9413 50.488 18.256C50.488 17.0827 50.1467 16.1547 49.464 15.472C48.8027 14.7893 47.896 14.448 46.744 14.448C45.9547 14.448 45.1547 14.6293 44.344 14.992C43.5547 15.3333 42.7867 15.8347 42.04 16.496C41.8693 16.6453 41.656 16.72 41.4 16.72C41.1653 16.6987 40.9627 16.592 40.792 16.4C40.6213 16.208 40.5467 15.9947 40.568 15.76C40.5893 15.504 40.6853 15.2907 40.856 15.12C41.7733 14.3093 42.7333 13.712 43.736 13.328C44.76 12.9227 45.7627 12.72 46.744 12.72C48.3867 12.72 49.72 13.2107 50.744 14.192C51.768 15.1733 52.28 16.528 52.28 18.256C52.28 20.1973 51.8747 22.064 51.064 23.856C50.2533 25.648 49.0907 27.216 47.576 28.56ZM49.88 11.024C48.7493 10.7253 47.608 10.3733 46.456 9.968C45.3253 9.56267 44.3333 9.15733 43.48 8.752C43.2667 8.64533 43.1173 8.47467 43.032 8.24C42.968 7.984 42.9893 7.74933 43.096 7.536C43.2027 7.32267 43.3733 7.184 43.608 7.12C43.8427 7.03467 44.0667 7.04533 44.28 7.152C45.0907 7.55733 46.04 7.96267 47.128 8.368C48.2373 8.752 49.304 9.06133 50.328 9.296C50.5627 9.36 50.744 9.49867 50.872 9.712C51 9.92533 51.032 10.1493 50.968 10.384C50.904 10.6187 50.7653 10.8 50.552 10.928C50.3387 11.056 50.1147 11.088 49.88 11.024ZM68.888 15.056C68.6107 15.056 68.3653 14.9493 68.152 14.736C67.96 14.5227 67.864 14.2773 67.864 14C67.864 13.7227 67.96 13.488 68.152 13.296C68.3653 13.0827 68.6107 12.976 68.888 12.976H89.144C89.4213 12.976 89.656 13.0827 89.848 13.296C90.0613 13.488 90.168 13.7227 90.168 14C90.168 14.2773 90.0613 14.5227 89.848 14.736C89.656 14.9493 89.4213 15.056 89.144 15.056H68.888Z" fill="#F5F5F5"/>
</svg>
